{
.appVersion = "1057";
copyright = "Copyright 2017 Google Inc. All Rights Reserved.";
customParameters = (
{
name = glyphOrder;
value = (
.notdef,
NULL,
CR,
space,
uni00A0,
uni1950,
uni1951,
uni1952,
uni1953,
uni1954,
uni1955,
uni1956,
uni1957,
uni1958,
uni1959,
uni195A,
uni195B,
uni195C,
uni195D,
uni195E,
uni195F,
uni1960,
uni1961,
uni1962,
uni1963,
uni1964,
uni1965,
uni1966,
uni1967,
uni1968,
uni1969,
uni196A,
uni196B,
uni196C,
uni196D,
uni1970,
uni1971,
uni1972,
uni1973,
uni1974,
uni3001,
uni3002,
uni3008,
uni3009,
uni300A,
uni300B,
uni1040,
uni1041,
uni1042,
uni1043,
uni1044,
uni1045,
uni1046,
uni1047,
uni1048,
uni1049,
uni0300,
uni0301,
uni0307,
uni0308,
uni030C,
uni0300.space,
uni0301.space,
uni0307.space,
uni0308.space,
uni030C.space,
uni196C.wide,
uni200B,
uni200C,
uni200D,
uni25CC
);
},
{
name = description;
value = "Designed by Monotype design team.";
},
{
name = license;
value = "This Font Software is licensed under the SIL Open Font License, Version 1.1. This Font Software is distributed on an \"AS IS\" BASIS, WITHOUT WARRANTIES OR CONDITIONS OF ANY KIND, either express or implied. See the SIL Open Font License for the specific language, permissions and limitations governing your use of this Font Software.";
},
{
name = licenseURL;
value = "http://scripts.sil.org/OFL";
},
{
name = vendorID;
value = GOOG;
},
{
name = unicodeRanges;
value = (
0,
1,
6,
31,
45,
48,
74,
94
);
},
{
name = trademark;
value = "Noto is a trademark of Google Inc.";
},
{
name = "Has WWS Names";
value = 1;
},
{
name = versionString;
value = "Version 2.000";
},
{
name = fsType;
value = (
);
},
{
name = codePageRanges;
value = (
"1252"
);
},
{
name = "Don't use Production Names";
value = 1;
}
);
date = "2017-05-04 18:53:13 +0000";
designer = "Monotype Design Team";
designerURL = "http://www.monotype.com/studio";
disablesAutomaticAlignment = 1;
disablesNiceNames = 1;
familyName = "Noto Sans Tai Le";
fontMaster = (
{
alignmentZones = (
"{1069, 15}",
"{714, 15}",
"{536, 15}",

glyphs = (
{
glyphname = .notdef;
lastChange = "2017-09-08 15:50:39 +0000";
layers = (
{
layerId = UUID0;
paths = (
{
closed = 1;
nodes = (
"505 0 LINE",
"505 714 LINE",
"94 714 LINE",
"94 0 LINE"
);
},
{
closed = 1;
nodes = (
"145 663 LINE",
"454 663 LINE",
"454 51 LINE",
"145 51 LINE"
);
}
);
width = 600;
}
);
},
{
glyphname = uni1950;
lastChange = "2017-09-08 15:50:39 +0000";
layers = (
{
layerId = UUID0;
paths = (
{
closed = 1;
nodes = (
"458 10 LINE",
"465 93 OFFCURVE",
"469 192 OFFCURVE",
"469 252 CURVE SMOOTH",
"469 474 OFFCURVE",
"417 546 OFFCURVE",
"354 546 CURVE SMOOTH",
"259 546 OFFCURVE",
"160 397 OFFCURVE",
"99 361 CURVE",
"95 406 OFFCURVE",
"83 449 OFFCURVE",
"66 488 CURVE",
"-10 452 LINE",
"7 404 OFFCURVE",
"21 333 OFFCURVE",
"29 285 CURVE",
"98 287 LINE",
"173 319 OFFCURVE",
"271 482 OFFCURVE",
"327 482 CURVE SMOOTH",
"354 482 OFFCURVE",
"383 409 OFFCURVE",
"383 235 CURVE SMOOTH",
"383 171 OFFCURVE",
"379 84 OFFCURVE",
"370 -10 CURVE"
);
}
);
width = 513;
}
);
unicode = 1950;
},
{
glyphname = uni1951;
lastChange = "2017-09-08 15:50:39 +0000";
layers = (
{
layerId = UUID0;
paths = (
{
closed = 1;
nodes = (
"428 -10 OFFCURVE",
"488 15 OFFCURVE",
"534 49 CURVE",
"533 -10 LINE",
"618 20 LINE",
"619 54 OFFCURVE",
"620 112 OFFCURVE",
"620 165 CURVE SMOOTH",
"620 507 OFFCURVE",
"498 546 OFFCURVE",
"385 546 CURVE SMOOTH",
"316 546 OFFCURVE",
"245 500 OFFCURVE",
"200 438 CURVE",
"188 480 OFFCURVE",
"161 520 OFFCURVE",
"101 520 CURVE SMOOTH",
"59 520 OFFCURVE",
"20 489 OFFCURVE",
"-10 454 CURVE",
"5 414 LINE",
"19 439 OFFCURVE",
"42 456 OFFCURVE",
"75 456 CURVE SMOOTH",
"129 456 OFFCURVE",
"120 365 OFFCURVE",
"122 333 CURVE",
"207 339 LINE",
"233 430 OFFCURVE",
"301 482 OFFCURVE",
"372 482 CURVE SMOOTH",
"438 482 OFFCURVE",
"497 469 OFFCURVE",
"521 329 CURVE",
"506 330 OFFCURVE",
"491 330 OFFCURVE",
"478 330 CURVE SMOOTH",
"280 330 OFFCURVE",
"190 243 OFFCURVE",
"190 149 CURVE SMOOTH",
"190 40 OFFCURVE",
"263 -10 OFFCURVE",
"359 -10 CURVE SMOOTH"
);
},
{
closed = 1;
nodes = (
"321 54 OFFCURVE",
"281 88 OFFCURVE",
"281 148 CURVE SMOOTH",
"281 213 OFFCURVE",
"334 274 OFFCURVE",
"476 274 CURVE SMOOTH",
"493 274 OFFCURVE",
"510 273 OFFCURVE",
"529 271 CURVE",
"532 236 OFFCURVE",
"534 195 OFFCURVE",
"534 148 CURVE SMOOTH",
"534 109 LINE",
"496 72 OFFCURVE",
"433 54 OFFCURVE",
"379 54 CURVE SMOOTH"
);
}
);
width = 664;
}
);
unicode = 1951;
},
{
glyphname = uni1952;
lastChange = "2017-09-08 15:50:39 +0000";
layers = (
{
layerId = UUID0;
paths = (
{
closed = 1;
nodes = (
"143 10 LINE",
"147 72 OFFCURVE",
"150 202 OFFCURVE",
"150 279 CURVE SMOOTH",
"150 310 OFFCURVE",
"149 341 OFFCURVE",
"148 370 CURVE",
"179 429 OFFCURVE",
"236 482 OFFCURVE",
"321 482 CURVE SMOOTH",
"397 482 OFFCURVE",
"406 429 OFFCURVE",
"406 302 CURVE SMOOTH",
"406 234 OFFCURVE",
"397 102 OFFCURVE",
"381 -10 CURVE",
"469 10 LINE",
"480 60 OFFCURVE",
"492 210 OFFCURVE",
"492 296 CURVE SMOOTH",
"492 451 OFFCURVE",
"474 546 OFFCURVE",
"344 546 CURVE SMOOTH",
"283 546 OFFCURVE",
"197 506 OFFCURVE",
"145 443 CURVE",
"142 485 OFFCURVE",
"137 521 OFFCURVE",
"131 546 CURVE",
"49 528 LINE",
"57 491 OFFCURVE",
"64 378 OFFCURVE",
"64 276 CURVE SMOOTH",
"64 167 OFFCURVE",
"63 79 OFFCURVE",
"58 -10 CURVE"
);
}
);
width = 536;
}
);
unicode = 1952;
},
{
glyphname = uni1953;
lastChange = "2017-09-08 15:50:39 +0000";
layers = (
{
layerId = UUID0;
paths = (
{
closed = 1;
nodes = (
"455 -10 OFFCURVE",
"536 24 OFFCURVE",
"598 88 CURVE",
"596 50 OFFCURVE",
"593 16 OFFCURVE",
"588 -10 CURVE",
"673 10 LINE",
"681 96 OFFCURVE",
"683 213 OFFCURVE",
"683 290 CURVE SMOOTH",
"683 448 OFFCURVE",
"609 546 OFFCURVE",
"465 546 CURVE SMOOTH",
"405 546 OFFCURVE",
"340 504 OFFCURVE",
"290 448 CURVE",
"282 496 OFFCURVE",
"260 546 OFFCURVE",
"193 546 CURVE SMOOTH",
"151 546 OFFCURVE",
"112 514 OFFCURVE",
"83 478 CURVE",
"81 511 OFFCURVE",
"75 541 OFFCURVE",
"67 567 CURVE",
"-10 541 LINE",
"0 492 OFFCURVE",
"6 424 OFFCURVE",
"7 375 CURVE",
"75 378 LINE",
"100 448 OFFCURVE",
"126 482 OFFCURVE",
"159 482 CURVE SMOOTH",
"191 482 OFFCURVE",
"207 441 OFFCURVE",
"207 365 CURVE SMOOTH",
"207 269 LINE SMOOTH",
"207 91 OFFCURVE",
"265 -10 OFFCURVE",
"407 -10 CURVE SMOOTH"
);
},
{
closed = 1;
nodes = (
"334 54 OFFCURVE",
"293 142 OFFCURVE",
"293 269 CURVE SMOOTH",
"293 396 OFFCURVE",
"346 482 OFFCURVE",
"451 482 CURVE SMOOTH",
"560 482 OFFCURVE",
"597 402 OFFCURVE",
"597 275 CURVE SMOOTH",
"597 148 OFFCURVE",
"551 54 OFFCURVE",
"428 54 CURVE SMOOTH"
);
}
);
width = 727;
}
);
unicode = 1953;
},
{
glyphname = uni1954;
lastChange = "2017-09-08 15:50:39 +0000";
layers = (
{
layerId = UUID0;
paths = (
{
closed = 1;
nodes = (
"401 -10 OFFCURVE",
"470 17 OFFCURVE",
"520 52 CURVE",
"519 32 OFFCURVE",
"517 11 OFFCURVE",
"516 -10 CURVE",
"603 10 LINE",
"609 87 OFFCURVE",
"614 219 OFFCURVE",
"614 296 CURVE SMOOTH",
"614 407 OFFCURVE",
"604 508 OFFCURVE",
"595 546 CURVE",
"515 536 LINE",
"524 473 OFFCURVE",
"528 389 OFFCURVE",
"528 287 CURVE SMOOTH",
"528 240 OFFCURVE",
"526 179 OFFCURVE",
"523 114 CURVE",
"488 82 OFFCURVE",
"437 54 OFFCURVE",
"377 54 CURVE SMOOTH",
"301 54 OFFCURVE",
"293 103 OFFCURVE",
"293 260 CURVE SMOOTH",
"293 306 LINE SMOOTH",
"293 400 OFFCURVE",
"289 546 OFFCURVE",
"193 546 CURVE SMOOTH",
"151 546 OFFCURVE",
"112 514 OFFCURVE",
"83 478 CURVE",
"81 511 OFFCURVE",
"75 541 OFFCURVE",
"67 567 CURVE",
"-10 541 LINE",
"0 492 OFFCURVE",
"6 424 OFFCURVE",
"7 375 CURVE",
"75 378 LINE",
"100 448 OFFCURVE",
"126 482 OFFCURVE",
"159 482 CURVE SMOOTH",
"198 482 OFFCURVE",
"207 448 OFFCURVE",
"207 325 CURVE SMOOTH",
"207 253 LINE SMOOTH",
"207 79 OFFCURVE",
"224 -10 OFFCURVE",
"354 -10 CURVE SMOOTH"
);
}
);
width = 658;
}
);
unicode = 1954;
},
{
glyphname = uni1955;
lastChange = "2017-09-08 15:50:39 +0000";
layers = (
{
layerId = UUID0;
paths = (
{
closed = 1;
nodes = (
"201 -10 OFFCURVE",
"246 65 OFFCURVE",
"268 115 CURVE",
"288 69 OFFCURVE",
"343 -10 OFFCURVE",
"422 -10 CURVE SMOOTH",
"508 -10 OFFCURVE",
"564 62 OFFCURVE",
"564 284 CURVE SMOOTH",
"564 344 OFFCURVE",
"559 467 OFFCURVE",
"549 546 CURVE",
"465 536 LINE",
"475 442 OFFCURVE",
"478 365 OFFCURVE",
"478 301 CURVE SMOOTH",
"478 127 OFFCURVE",
"455 54 OFFCURVE",
"428 54 CURVE SMOOTH",
"381 54 OFFCURVE",
"343 120 OFFCURVE",
"306 206 CURVE",
"250 178 LINE",
"226 105 OFFCURVE",
"186 53 OFFCURVE",
"166 53 CURVE SMOOTH",
"147 53 OFFCURVE",
"143 70 OFFCURVE",
"143 233 CURVE SMOOTH",
"143 290 LINE SMOOTH",
"143 356 OFFCURVE",
"135 473 OFFCURVE",
"127 525 CURVE",
"44 509 LINE",
"55 415 OFFCURVE",
"57 357 OFFCURVE",
"57 298 CURVE SMOOTH",
"57 252 LINE SMOOTH",
"57 78 OFFCURVE",
"62 -10 OFFCURVE",
"137 -10 CURVE SMOOTH"
);
}
);
width = 608;
}
);
unicode = 1955;
},
{
glyphname = uni1956;
lastChange = "2017-09-08 15:50:39 +0000";
layers = (
{
layerId = UUID0;
paths = (
{
closed = 1;
nodes = (
"304 -10 OFFCURVE",
"385 25 OFFCURVE",
"447 88 CURVE",
"446 55 OFFCURVE",
"445 22 OFFCURVE",
"443 -10 CURVE",
"528 10 LINE",
"532 99 OFFCURVE",
"533 238 OFFCURVE",
"533 288 CURVE SMOOTH",
"533 329 OFFCURVE",
"527 366 OFFCURVE",
"518 399 CURVE",
"552 439 OFFCURVE",
"613 482 OFFCURVE",
"687 482 CURVE SMOOTH",
"763 482 OFFCURVE",
"772 429 OFFCURVE",
"772 302 CURVE SMOOTH",
"772 234 OFFCURVE",
"763 102 OFFCURVE",
"747 -10 CURVE",
"835 10 LINE",
"848 99 OFFCURVE",
"858 217 OFFCURVE",
"858 283 CURVE SMOOTH",
"858 457 OFFCURVE",
"840 546 OFFCURVE",
"710 546 CURVE SMOOTH",
"650 546 OFFCURVE",
"565 516 OFFCURVE",
"495 452 CURVE",
"460 512 OFFCURVE",
"399 546 OFFCURVE",
"314 546 CURVE SMOOTH",
"255 546 OFFCURVE",
"191 505 OFFCURVE",
"141 450 CURVE",
"139 478 OFFCURVE",
"135 511 OFFCURVE",
"127 542 CURVE",
"44 506 LINE",
"52 461 OFFCURVE",
"57 404 OFFCURVE",
"57 365 CURVE SMOOTH",
"57 269 LINE SMOOTH",
"57 91 OFFCURVE",
"115 -10 OFFCURVE",
"256 -10 CURVE SMOOTH"
);
},
{
closed = 1;
nodes = (
"184 54 OFFCURVE",
"143 142 OFFCURVE",
"143 269 CURVE SMOOTH",
"143 396 OFFCURVE",
"195 482 OFFCURVE",
"300 482 CURVE SMOOTH",
"410 482 OFFCURVE",
"447 402 OFFCURVE",
"447 275 CURVE SMOOTH",
"447 148 OFFCURVE",
"401 54 OFFCURVE",
"277 54 CURVE SMOOTH"
);
}
);
width = 902;
}
);
unicode = 1956;
},
{
glyphname = uni1957;
lastChange = "2017-09-08 15:50:39 +0000";
layers = (
{
layerId = UUID0;
paths = (
{
closed = 1;
nodes = (
"310 -10 OFFCURVE",
"405 34 OFFCURVE",
"469 112 CURVE",
"497 33 OFFCURVE",
"554 -10 OFFCURVE",
"646 -10 CURVE SMOOTH",
"694 -10 OFFCURVE",
"775 25 OFFCURVE",
"837 88 CURVE",
"836 55 OFFCURVE",
"835 22 OFFCURVE",
"833 -10 CURVE",
"918 10 LINE",
"922 96 OFFCURVE",
"923 197 OFFCURVE",
"923 288 CURVE SMOOTH",
"923 448 OFFCURVE",
"850 546 OFFCURVE",
"705 546 CURVE SMOOTH",
"637 546 OFFCURVE",
"561 492 OFFCURVE",
"509 423 CURVE",
"477 501 OFFCURVE",
"412 546 OFFCURVE",
"314 546 CURVE SMOOTH",
"255 546 OFFCURVE",
"191 505 OFFCURVE",
"141 450 CURVE",
"139 478 OFFCURVE",
"135 511 OFFCURVE",
"127 542 CURVE",
"44 506 LINE",
"52 461 OFFCURVE",
"57 404 OFFCURVE",
"57 365 CURVE SMOOTH",
"57 269 LINE SMOOTH",
"57 91 OFFCURVE",
"115 -10 OFFCURVE",
"256 -10 CURVE SMOOTH"
);
},
{
closed = 1;
nodes = (
"184 54 OFFCURVE",
"143 142 OFFCURVE",
"143 269 CURVE SMOOTH",
"143 396 OFFCURVE",
"195 482 OFFCURVE",
"300 482 CURVE SMOOTH",
"410 482 OFFCURVE",
"447 402 OFFCURVE",
"447 275 CURVE SMOOTH",
"447 148 OFFCURVE",
"401 54 OFFCURVE",
"277 54 CURVE SMOOTH"
);
},
{
closed = 1;
nodes = (
"574 54 OFFCURVE",
"533 142 OFFCURVE",
"533 269 CURVE SMOOTH",
"533 396 OFFCURVE",
"585 482 OFFCURVE",
"690 482 CURVE SMOOTH",
"800 482 OFFCURVE",
"837 402 OFFCURVE",
"837 275 CURVE SMOOTH",
"837 148 OFFCURVE",
"791 54 OFFCURVE",
"667 54 CURVE SMOOTH"
);
}
);
width = 967;
}
);
unicode = 1957;
},
{
glyphname = uni1958;
lastChange = "2017-09-08 15:50:39 +0000";
layers = (
{
layerId = UUID0;
paths = (
{
closed = 1;
nodes = (
"148 -10 OFFCURVE",
"212 21 OFFCURVE",
"254 57 CURVE",
"268 37 OFFCURVE",
"288 27 OFFCURVE",
"313 27 CURVE SMOOTH",
"348 27 OFFCURVE",
"394 46 OFFCURVE",
"433 71 CURVE",
"431 45 OFFCURVE",
"428 18 OFFCURVE",
"425 -10 CURVE",
"513 10 LINE",
"520 70 OFFCURVE",
"525 198 OFFCURVE",
"525 258 CURVE SMOOTH",
"525 368 OFFCURVE",
"506 490 OFFCURVE",
"488 546 CURVE",
"407 528 LINE",
"425 481 OFFCURVE",
"439 317 OFFCURVE",
"439 235 CURVE SMOOTH",
"439 203 OFFCURVE",
"438 164 OFFCURVE",
"436 122 CURVE",
"406 100 OFFCURVE",
"371 90 OFFCURVE",
"347 90 CURVE SMOOTH",
"325 90 OFFCURVE",
"307 101 OFFCURVE",
"305 192 CURVE",
"224 178 LINE",
"226 143 OFFCURVE",
"229 115 OFFCURVE",
"237 92 CURVE",
"205 64 OFFCURVE",
"165 53 OFFCURVE",
"138 53 CURVE SMOOTH",
"115 53 OFFCURVE",
"97 64 OFFCURVE",
"96 155 CURVE",
"15 141 LINE",
"19 40 OFFCURVE",
"46 -10 OFFCURVE",
"104 -10 CURVE SMOOTH"
);
}
);
width = 569;
}
);
unicode = 1958;
},
{
glyphname = uni1959;
lastChange = "2017-09-08 15:50:39 +0000";
layers = (
{
layerId = UUID0;
paths = (
{
closed = 1;
nodes = (
"259 -10 OFFCURVE",
"330 18 OFFCURVE",
"382 53 CURVE",
"377 -10 LINE",
"464 10 LINE",
"471 87 OFFCURVE",
"476 195 OFFCURVE",
"476 271 CURVE SMOOTH",
"476 382 OFFCURVE",
"469 494 OFFCURVE",
"457 546 CURVE",
"377 536 LINE",
"386 473 OFFCURVE",
"390 364 OFFCURVE",
"390 263 CURVE SMOOTH",
"390 218 OFFCURVE",
"389 170 OFFCURVE",
"386 116 CURVE",
"349 83 OFFCURVE",
"294 54 OFFCURVE",
"234 54 CURVE SMOOTH",
"158 54 OFFCURVE",
"145 103 OFFCURVE",
"145 260 CURVE SMOOTH",
"145 279 LINE SMOOTH",
"145 390 OFFCURVE",
"139 492 OFFCURVE",
"126 546 CURVE",
"44 528 LINE",
"52 491 OFFCURVE",
"59 378 OFFCURVE",
"59 276 CURVE SMOOTH",
"59 253 LINE SMOOTH",
"59 79 OFFCURVE",
"81 -10 OFFCURVE",
"210 -10 CURVE SMOOTH"
);
}
);
width = 520;
}
);
unicode = 1959;
},
{
glyphname = uni195A;
lastChange = "2017-09-08 15:50:39 +0000";
layers = (
{
layerId = UUID0;
paths = (
{
closed = 1;
nodes = (
"263 -10 OFFCURVE",
"348 26 OFFCURVE",
"399 69 CURVE",
"428 23 OFFCURVE",
"471 -10 OFFCURVE",
"534 -10 CURVE SMOOTH",
"586 -10 OFFCURVE",
"634 13 OFFCURVE",
"699 77 CURVE",
"698 45 OFFCURVE",
"695 16 OFFCURVE",
"692 -10 CURVE",
"777 10 LINE",
"783 80 OFFCURVE",
"787 140 OFFCURVE",
"787 179 CURVE SMOOTH",
"787 192 LINE SMOOTH",
"787 313 OFFCURVE",
"729 449 OFFCURVE",
"589 449 CURVE SMOOTH",
"521 449 OFFCURVE",
"462 404 OFFCURVE",
"432 352 CURVE",
"432 450 OFFCURVE",
"444 500 OFFCURVE",
"483 500 CURVE SMOOTH",
"502 500 OFFCURVE",
"516 494 OFFCURVE",
"526 490 CURVE",
"543 523 LINE",
"513 540 OFFCURVE",
"491 546 OFFCURVE",
"477 546 CURVE SMOOTH",
"359 546 OFFCURVE",
"352 348 OFFCURVE",
"352 296 CURVE SMOOTH",
"352 257 LINE SMOOTH",
"352 215 OFFCURVE",
"359 160 OFFCURVE",
"378 112 CURVE",
"341 80 OFFCURVE",
"289 54 OFFCURVE",
"231 54 CURVE SMOOTH",
"155 54 OFFCURVE",
"142 103 OFFCURVE",
"142 260 CURVE SMOOTH",
"142 279 LINE SMOOTH",
"142 381 OFFCURVE",
"137 477 OFFCURVE",
"126 533 CURVE",
"44 513 LINE",
"51 466 OFFCURVE",
"56 367 OFFCURVE",
"56 276 CURVE SMOOTH",
"56 253 LINE SMOOTH",
"56 79 OFFCURVE",
"78 -10 OFFCURVE",
"208 -10 CURVE SMOOTH"
);
},
{
closed = 1;
nodes = (
"474 54 OFFCURVE",
"438 141 OFFCURVE",
"438 234 CURVE SMOOTH",
"438 333 OFFCURVE",
"504 396 OFFCURVE",
"581 396 CURVE SMOOTH",
"658 396 OFFCURVE",
"701 327 OFFCURVE",
"701 234 CURVE SMOOTH",
"701 142 OFFCURVE",
"650 54 OFFCURVE",
"555 54 CURVE SMOOTH"
);
}
);
width = 831;
}
);
unicode = 195A;
},
{
glyphname = uni195B;
lastChange = "2017-09-08 15:50:39 +0000";
layers = (
{
layerId = UUID0;
paths = (
{
closed = 1;
nodes = (
"249 -10 OFFCURVE",
"322 18 OFFCURVE",
"374 53 CURVE",
"373 32 OFFCURVE",
"372 11 OFFCURVE",
"370 -10 CURVE",
"455 10 LINE",
"461 87 OFFCURVE",
"465 227 OFFCURVE",
"465 304 CURVE SMOOTH",
"465 415 OFFCURVE",
"458 508 OFFCURVE",
"450 546 CURVE",
"370 536 LINE",
"375 495 OFFCURVE",
"378 448 OFFCURVE",
"379 392 CURVE",
"297 375 OFFCURVE",
"219 364 OFFCURVE",
"139 355 CURVE",
"138 407 OFFCURVE",
"133 471 OFFCURVE",
"120 520 CURVE",
"44 500 LINE",
"51 462 OFFCURVE",
"54 403 OFFCURVE",
"54 325 CURVE SMOOTH",
"54 253 LINE SMOOTH",
"54 79 OFFCURVE",
"71 -10 OFFCURVE",
"201 -10 CURVE SMOOTH"
);
},
{
closed = 1;
nodes = (
"148 54 OFFCURVE",
"140 103 OFFCURVE",
"140 260 CURVE SMOOTH",
"140 288 LINE",
"211 301 OFFCURVE",
"314 322 OFFCURVE",
"379 340 CURVE",
"379 295 LINE SMOOTH",
"379 248 OFFCURVE",
"379 183 OFFCURVE",
"376 115 CURVE",
"339 83 OFFCURVE",
"284 54 OFFCURVE",
"224 54 CURVE SMOOTH"
);
}
);
width = 509;
}
);
unicode = 195B;
},
{
glyphname = uni195C;
lastChange = "2017-09-08 15:50:39 +0000";
layers = (
{
layerId = UUID0;
paths = (
{
closed = 1;
nodes = (
"779 -181 OFFCURVE",
"787 114 OFFCURVE",
"787 199 CURVE SMOOTH",
"787 294 OFFCURVE",
"746 449 OFFCURVE",
"581 449 CURVE SMOOTH",
"520 449 OFFCURVE",
"463 408 OFFCURVE",
"432 352 CURVE",
"432 450 OFFCURVE",
"441 500 OFFCURVE",
"486 500 CURVE SMOOTH",
"505 500 OFFCURVE",
"516 494 OFFCURVE",
"526 490 CURVE",
"543 523 LINE",
"513 540 OFFCURVE",
"491 546 OFFCURVE",
"477 546 CURVE SMOOTH",
"359 546 OFFCURVE",
"352 348 OFFCURVE",
"352 296 CURVE SMOOTH",
"352 263 LINE SMOOTH",
"352 210 OFFCURVE",
"359 156 OFFCURVE",
"377 111 CURVE",
"340 80 OFFCURVE",
"289 54 OFFCURVE",
"231 54 CURVE SMOOTH",
"155 54 OFFCURVE",
"142 103 OFFCURVE",
"142 260 CURVE SMOOTH",
"142 279 LINE SMOOTH",
"142 381 OFFCURVE",
"137 477 OFFCURVE",
"126 533 CURVE",
"44 513 LINE",
"51 466 OFFCURVE",
"56 367 OFFCURVE",
"56 276 CURVE SMOOTH",
"56 253 LINE SMOOTH",
"56 79 OFFCURVE",
"78 -10 OFFCURVE",
"208 -10 CURVE SMOOTH",
"262 -10 OFFCURVE",
"347 26 OFFCURVE",
"398 68 CURVE",
"428 21 OFFCURVE",
"475 -10 OFFCURVE",
"542 -10 CURVE SMOOTH",
"599 -10 OFFCURVE",
"651 14 OFFCURVE",
"701 65 CURVE",
"689 -76 OFFCURVE",
"636 -125 OFFCURVE",
"553 -125 CURVE SMOOTH",
"513 -125 OFFCURVE",
"460 -114 OFFCURVE",
"426 -99 CURVE",
"426 -154 LINE",
"458 -168 OFFCURVE",
"511 -181 OFFCURVE",
"561 -181 CURVE SMOOTH"
);
},
{
closed = 1;
nodes = (
"474 54 OFFCURVE",
"438 141 OFFCURVE",
"438 234 CURVE SMOOTH",
"438 333 OFFCURVE",
"504 396 OFFCURVE",
"581 396 CURVE SMOOTH",
"658 396 OFFCURVE",
"701 327 OFFCURVE",
"701 234 CURVE SMOOTH",
"701 142 OFFCURVE",
"650 54 OFFCURVE",
"555 54 CURVE SMOOTH"
);
}
);
width = 831;
}
);
unicode = 195C;
},
{
glyphname = uni195D;
lastChange = "2017-09-08 15:50:39 +0000";
layers = (
{
layerId = UUID0;
paths = (
{
closed = 1;
nodes = (
"304 -10 OFFCURVE",
"385 25 OFFCURVE",
"447 88 CURVE",
"446 55 OFFCURVE",
"445 22 OFFCURVE",
"443 -10 CURVE",
"528 10 LINE",
"531 106 OFFCURVE",
"533 197 OFFCURVE",
"533 288 CURVE SMOOTH",
"533 448 OFFCURVE",
"459 546 OFFCURVE",
"314 546 CURVE SMOOTH",
"255 546 OFFCURVE",
"191 505 OFFCURVE",
"141 450 CURVE",
"139 478 OFFCURVE",
"135 511 OFFCURVE",
"127 542 CURVE",
"44 506 LINE",
"52 461 OFFCURVE",
"57 404 OFFCURVE",
"57 365 CURVE SMOOTH",
"57 269 LINE SMOOTH",
"57 91 OFFCURVE",
"115 -10 OFFCURVE",
"256 -10 CURVE SMOOTH"
);
},
{
closed = 1;
nodes = (
"184 54 OFFCURVE",
"143 142 OFFCURVE",
"143 269 CURVE SMOOTH",
"143 396 OFFCURVE",
"195 482 OFFCURVE",
"300 482 CURVE SMOOTH",
"410 482 OFFCURVE",
"447 402 OFFCURVE",
"447 275 CURVE SMOOTH",
"447 148 OFFCURVE",
"401 54 OFFCURVE",
"277 54 CURVE SMOOTH"
);
}
);
width = 577;
}
);
unicode = 195D;
},
{
glyphname = uni195E;
lastChange = "2017-09-08 15:50:39 +0000";
layers = (
{
layerId = UUID0;
paths = (
{
closed = 1;
nodes = (
"420 -181 OFFCURVE",
"499 -42 OFFCURVE",
"499 207 CURVE SMOOTH",
"499 268 LINE SMOOTH",
"499 310 OFFCURVE",
"493 357 OFFCURVE",
"479 400 CURVE",
"512 446 OFFCURVE",
"563 482 OFFCURVE",
"633 482 CURVE SMOOTH",
"709 482 OFFCURVE",
"719 429 OFFCURVE",
"719 302 CURVE SMOOTH",
"719 234 OFFCURVE",
"709 102 OFFCURVE",
"694 -10 CURVE",
"782 10 LINE",
"792 60 OFFCURVE",
"805 210 OFFCURVE",
"805 296 CURVE SMOOTH",
"805 451 OFFCURVE",
"787 546 OFFCURVE",
"657 546 CURVE SMOOTH",
"596 546 OFFCURVE",
"512 507 OFFCURVE",
"460 446 CURVE",
"430 503 OFFCURVE",
"379 546 OFFCURVE",
"300 546 CURVE SMOOTH",
"230 546 OFFCURVE",
"169 496 OFFCURVE",
"140 446 CURVE",
"138 473 OFFCURVE",
"134 513 OFFCURVE",
"127 542 CURVE",
"44 506 LINE",
"52 461 OFFCURVE",
"57 404 OFFCURVE",
"57 365 CURVE SMOOTH",
"57 281 LINE SMOOTH",
"57 181 OFFCURVE",
"110 29 OFFCURVE",
"252 29 CURVE SMOOTH",
"294 29 OFFCURVE",
"367 58 OFFCURVE",
"416 115 CURVE",
"404 -94 OFFCURVE",
"346 -125 OFFCURVE",
"250 -125 CURVE SMOOTH",
"220 -125 OFFCURVE",
"157 -110 OFFCURVE",
"132 -99 CURVE",
"132 -151 LINE",
"164 -169 OFFCURVE",
"232 -181 OFFCURVE",
"258 -181 CURVE SMOOTH"
);
},
{
closed = 1;
nodes = (
"166 93 OFFCURVE",
"143 189 OFFCURVE",
"143 268 CURVE SMOOTH",
"143 395 OFFCURVE",
"199 487 OFFCURVE",
"286 487 CURVE SMOOTH",
"370 487 OFFCURVE",
"413 418 OFFCURVE",
"413 325 CURVE SMOOTH",
"413 208 OFFCURVE",
"383 93 OFFCURVE",
"260 93 CURVE SMOOTH"
);
}
);
width = 849;
}
);
unicode = 195E;
},
{
glyphname = uni195F;
lastChange = "2017-09-08 15:50:39 +0000";
layers = (
{
layerId = UUID0;
paths = (
{
closed = 1;
nodes = (
"256 -127 OFFCURVE",
"293 26 OFFCURVE",
"293 271 CURVE SMOOTH",
"293 306 LINE SMOOTH",
"293 325 OFFCURVE",
"292 347 OFFCURVE",
"292 370 CURVE",
"321 428 OFFCURVE",
"379 482 OFFCURVE",
"464 482 CURVE SMOOTH",
"541 482 OFFCURVE",
"550 429 OFFCURVE",
"550 302 CURVE SMOOTH",
"550 234 OFFCURVE",
"541 102 OFFCURVE",
"525 -10 CURVE",
"613 10 LINE",
"624 60 OFFCURVE",
"636 210 OFFCURVE",
"636 296 CURVE SMOOTH",
"636 451 OFFCURVE",
"618 546 OFFCURVE",
"488 546 CURVE SMOOTH",
"425 546 OFFCURVE",
"335 503 OFFCURVE",
"284 438 CURVE",
"273 497 OFFCURVE",
"248 546 OFFCURVE",
"193 546 CURVE SMOOTH",
"151 546 OFFCURVE",
"112 514 OFFCURVE",
"83 478 CURVE",
"81 511 OFFCURVE",
"75 541 OFFCURVE",
"67 567 CURVE",
"-10 541 LINE",
"0 492 OFFCURVE",
"6 424 OFFCURVE",
"7 375 CURVE",
"75 378 LINE",
"100 448 OFFCURVE",
"126 482 OFFCURVE",
"159 482 CURVE SMOOTH",
"198 482 OFFCURVE",
"207 448 OFFCURVE",
"207 325 CURVE SMOOTH",
"207 279 LINE SMOOTH",
"207 -11 OFFCURVE",
"203 -71 OFFCURVE",
"105 -71 CURVE SMOOTH",
"74 -71 OFFCURVE",
"45 -63 OFFCURVE",
"20 -51 CURVE",
"20 -104 LINE",
"44 -115 OFFCURVE",
"79 -127 OFFCURVE",
"110 -127 CURVE SMOOTH"
);
}
);
width = 680;
}
);
unicode = 195F;
},
{
glyphname = uni1960;
lastChange = "2017-09-08 15:50:39 +0000";
layers = (
{
layerId = UUID0;
paths = (
{
closed = 1;
nodes = (
"458 -239 OFFCURVE",
"464 43 OFFCURVE",
"464 159 CURVE SMOOTH",
"464 467 OFFCURVE",
"385 546 OFFCURVE",
"283 546 CURVE SMOOTH",
"226 546 OFFCURVE",
"174 523 OFFCURVE",
"136 479 CURVE",
"134 512 OFFCURVE",
"128 542 OFFCURVE",
"121 567 CURVE",
"44 541 LINE",
"54 492 OFFCURVE",
"60 424 OFFCURVE",
"61 375 CURVE",
"129 378 LINE",
"150 450 OFFCURVE",
"190 482 OFFCURVE",
"247 482 CURVE SMOOTH",
"320 482 OFFCURVE",
"356 450 OFFCURVE",
"370 329 CURVE",
"358 329 OFFCURVE",
"346 330 OFFCURVE",
"336 330 CURVE SMOOTH",
"139 330 OFFCURVE",
"49 243 OFFCURVE",
"49 149 CURVE SMOOTH",
"49 40 OFFCURVE",
"121 -10 OFFCURVE",
"218 -10 CURVE SMOOTH",
"275 -10 OFFCURVE",
"331 8 OFFCURVE",
"375 35 CURVE",
"365 -145 OFFCURVE",
"331 -183 OFFCURVE",
"235 -183 CURVE SMOOTH",
"185 -183 OFFCURVE",
"128 -166 OFFCURVE",
"103 -142 CURVE",
"103 -197 LINE",
"125 -215 OFFCURVE",
"181 -239 OFFCURVE",
"246 -239 CURVE SMOOTH"
);
},
{
closed = 1;
nodes = (
"180 54 OFFCURVE",
"139 88 OFFCURVE",
"139 148 CURVE SMOOTH",
"139 213 OFFCURVE",
"192 274 OFFCURVE",
"334 274 CURVE SMOOTH",
"346 274 OFFCURVE",
"360 273 OFFCURVE",
"375 272 CURVE",
"376 242 OFFCURVE",
"377 207 OFFCURVE",
"377 167 CURVE SMOOTH",
"377 141 OFFCURVE",
"377 118 OFFCURVE",
"376 96 CURVE",
"338 67 OFFCURVE",
"285 54 OFFCURVE",
"238 54 CURVE SMOOTH"
);
}
);
width = 508;
}
);
unicode = 1960;
},
{
glyphname = uni1961;
lastChange = "2017-09-08 15:50:39 +0000";
layers = (
{
layerId = UUID0;
paths = (
{
closed = 1;
nodes = (
"562 -239 OFFCURVE",
"611 -60 OFFCURVE",
"611 186 CURVE SMOOTH",
"611 211 LINE SMOOTH",
"611 322 OFFCURVE",
"604 484 OFFCURVE",
"595 521 CURVE",
"515 512 LINE",
"524 448 OFFCURVE",
"525 290 OFFCURVE",
"525 188 CURVE SMOOTH",
"525 116 LINE",
"489 83 OFFCURVE",
"437 54 OFFCURVE",
"377 54 CURVE SMOOTH",
"301 54 OFFCURVE",
"293 103 OFFCURVE",
"293 260 CURVE SMOOTH",
"293 306 LINE SMOOTH",
"293 400 OFFCURVE",
"289 546 OFFCURVE",
"193 546 CURVE SMOOTH",
"151 546 OFFCURVE",
"112 514 OFFCURVE",
"83 478 CURVE",
"81 511 OFFCURVE",
"75 541 OFFCURVE",
"67 567 CURVE",
"-10 541 LINE",
"0 492 OFFCURVE",
"6 424 OFFCURVE",
"7 375 CURVE",
"75 378 LINE",
"100 448 OFFCURVE",
"126 482 OFFCURVE",
"159 482 CURVE SMOOTH",
"198 482 OFFCURVE",
"207 448 OFFCURVE",
"207 325 CURVE SMOOTH",
"207 253 LINE SMOOTH",
"207 79 OFFCURVE",
"224 -10 OFFCURVE",
"354 -10 CURVE SMOOTH",
"403 -10 OFFCURVE",
"474 19 OFFCURVE",
"524 56 CURVE",
"520 -93 OFFCURVE",
"492 -183 OFFCURVE",
"372 -183 CURVE SMOOTH",
"318 -183 OFFCURVE",
"265 -166 OFFCURVE",
"239 -142 CURVE",
"239 -197 LINE",
"262 -215 OFFCURVE",
"324 -239 OFFCURVE",
"377 -239 CURVE SMOOTH"
);
}
);
width = 655;
}
);
unicode = 1961;
},
{
glyphname = uni1962;
lastChange = "2017-09-08 15:50:39 +0000";
layers = (
{
layerId = UUID0;
paths = (
{
closed = 1;
nodes = (
"142 9 LINE",
"167 71 OFFCURVE",
"318 366 OFFCURVE",
"399 450 CURVE",
"403 408 OFFCURVE",
"406 349 OFFCURVE",
"406 276 CURVE SMOOTH",
"406 167 OFFCURVE",
"404 79 OFFCURVE",
"399 -10 CURVE",
"484 10 LINE",
"489 72 OFFCURVE",
"492 202 OFFCURVE",
"492 279 CURVE SMOOTH",
"492 377 OFFCURVE",
"491 452 OFFCURVE",
"479 504 CURVE SMOOTH",
"470 543 OFFCURVE",
"460 546 OFFCURVE",
"435 546 CURVE SMOOTH",
"367 546 OFFCURVE",
"206 242 OFFCURVE",
"147 120 CURVE",
"149 176 OFFCURVE",
"150 235 OFFCURVE",
"150 279 CURVE SMOOTH",
"150 390 OFFCURVE",
"144 492 OFFCURVE",
"131 546 CURVE",
"49 528 LINE",
"57 491 OFFCURVE",
"64 378 OFFCURVE",
"64 276 CURVE SMOOTH",
"64 167 OFFCURVE",
"63 79 OFFCURVE",
"58 -10 CURVE"
);
}
);
width = 536;
}
);
unicode = 1962;
},
{
glyphname = uni1963;
lastChange = "2017-09-08 15:50:39 +0000";
layers = (
{
layerId = UUID0;
paths = (
{
closed = 1;
nodes = (
"239 42 LINE",
"164 52 OFFCURVE",
"150 69 OFFCURVE",
"150 202 CURVE SMOOTH",
"150 644 LINE SMOOTH",
"150 705 OFFCURVE",
"146 827 OFFCURVE",
"121 894 CURVE",
"44 879 LINE",
"59 846 OFFCURVE",
"64 769 OFFCURVE",
"64 663 CURVE SMOOTH",
"64 207 LINE SMOOTH",
"64 41 OFFCURVE",
"96 -3 OFFCURVE",
"239 -10 CURVE"
);
}
);
width = 239;
}
);
unicode = 1963;
},
{
glyphname = uni1964;
lastChange = "2017-09-08 15:50:39 +0000";
layers = (
{
layerId = UUID0;
paths = (
{
closed = 1;
nodes = (
"154 10 LINE",
"142 75 OFFCURVE",
"135 219 OFFCURVE",
"135 359 CURVE SMOOTH",
"135 536 LINE SMOOTH",
"135 646 OFFCURVE",
"144 845 OFFCURVE",
"271 845 CURVE SMOOTH",
"382 845 OFFCURVE",
"417 734 OFFCURVE",
"417 431 CURVE",
"257 412 OFFCURVE",
"198 301 OFFCURVE",
"198 193 CURVE SMOOTH",
"198 84 OFFCURVE",
"270 -10 OFFCURVE",
"401 -10 CURVE SMOOTH",
"431 -10 OFFCURVE",
"465 -6 OFFCURVE",
"488 -1 CURVE",
"498 88 OFFCURVE",
"500 286 OFFCURVE",
"500 445 CURVE SMOOTH",
"500 760 OFFCURVE",
"433 908 OFFCURVE",
"271 908 CURVE SMOOTH",
"104 908 OFFCURVE",
"49 711 OFFCURVE",
"49 526 CURVE SMOOTH",
"49 361 LINE SMOOTH",
"49 252 OFFCURVE",
"59 58 OFFCURVE",
"68 -10 CURVE"
);
},
{
closed = 1;
nodes = (
"355 46 OFFCURVE",
"286 83 OFFCURVE",
"286 195 CURVE SMOOTH",
"286 277 OFFCURVE",
"315 355 OFFCURVE",
"416 374 CURVE",
"416 250 OFFCURVE",
"413 121 OFFCURVE",
"408 46 CURVE"
);
}
);
width = 549;
}
);
unicode = 1964;
},
{
glyphname = uni1965;
lastChange = "2017-09-08 15:50:39 +0000";
layers = (
{
layerId = UUID0;
paths = (
{
closed = 1;
nodes = (
"149 10 LINE",
"144 80 OFFCURVE",
"135 209 OFFCURVE",
"135 350 CURVE SMOOTH",
"135 546 LINE SMOOTH",
"135 701 OFFCURVE",
"161 845 OFFCURVE",
"253 845 CURVE SMOOTH",
"332 845 OFFCURVE",
"381 749 OFFCURVE",
"381 452 CURVE SMOOTH",
"381 278 OFFCURVE",
"377 168 OFFCURVE",
"375 122 CURVE",
"460 142 LINE",
"460 187 OFFCURVE",
"465 297 OFFCURVE",
"465 459 CURVE SMOOTH",
"465 771 OFFCURVE",
"396 908 OFFCURVE",
"253 908 CURVE SMOOTH",
"92 908 OFFCURVE",
"49 693 OFFCURVE",
"49 536 CURVE SMOOTH",
"49 351 LINE SMOOTH",
"49 242 OFFCURVE",
"58 60 OFFCURVE",
"63 -10 CURVE"
);
}
);
width = 514;
}
);
unicode = 1965;
},
{
glyphname = uni1966;
lastChange = "2017-09-08 15:50:39 +0000";
layers = (
{
layerId = UUID0;
paths = (
{
closed = 1;
nodes = (
"433 -239 OFFCURVE",
"500 -154 OFFCURVE",
"500 155 CURVE SMOOTH",
"500 445 LINE SMOOTH",
"500 760 OFFCURVE",
"433 908 OFFCURVE",
"271 908 CURVE SMOOTH",
"104 908 OFFCURVE",
"49 711 OFFCURVE",
"49 526 CURVE SMOOTH",
"49 361 LINE SMOOTH",
"49 252 OFFCURVE",
"59 58 OFFCURVE",
"68 -10 CURVE",
"154 10 LINE",
"142 75 OFFCURVE",
"135 219 OFFCURVE",
"135 359 CURVE SMOOTH",
"135 536 LINE SMOOTH",
"135 646 OFFCURVE",
"144 845 OFFCURVE",
"271 845 CURVE SMOOTH",
"382 845 OFFCURVE",
"415 734 OFFCURVE",
"415 438 CURVE SMOOTH",
"415 99 LINE SMOOTH",
"415 -165 OFFCURVE",
"375 -183 OFFCURVE",
"277 -183 CURVE SMOOTH",
"219 -183 OFFCURVE",
"147 -151 OFFCURVE",
"121 -127 CURVE",
"121 -186 LINE",
"144 -204 OFFCURVE",
"219 -239 OFFCURVE",
"287 -239 CURVE SMOOTH"
);
}
);
width = 549;
}
);
unicode = 1966;
},
{
glyphname = uni1967;
lastChange = "2017-09-08 15:50:39 +0000";
layers = (
{
layerId = UUID0;
paths = (
{
closed = 1;
nodes = (
"305 -125 OFFCURVE",
"402 -113 OFFCURVE",
"483 -98 CURVE",
"474 -54 LINE",
"402 -63 OFFCURVE",
"307 -69 OFFCURVE",
"261 -69 CURVE SMOOTH",
"191 -69 OFFCURVE",
"150 -54 OFFCURVE",
"150 74 CURVE SMOOTH",
"150 283 LINE SMOOTH",
"150 344 OFFCURVE",
"146 481 OFFCURVE",
"121 547 CURVE",
"44 533 LINE",
"59 500 OFFCURVE",
"64 408 OFFCURVE",
"64 302 CURVE SMOOTH",
"64 119 LINE SMOOTH",
"64 -54 OFFCURVE",
"110 -125 OFFCURVE",
"246 -125 CURVE SMOOTH"
);
},
{
closed = 1;
nodes = (
"314 -239 OFFCURVE",
"425 -217 OFFCURVE",
"485 -195 CURVE",
"476 -152 LINE",
"413 -168 OFFCURVE",
"351 -182 OFFCURVE",
"249 -182 CURVE SMOOTH",
"182 -182 OFFCURVE",
"99 -164 OFFCURVE",
"49 -82 CURVE",
"-1 -137 LINE",
"67 -233 OFFCURVE",
"166 -239 OFFCURVE",
"236 -239 CURVE SMOOTH"
);
}
);
width = 290;
}
);
unicode = 1967;
},
{
glyphname = uni1968;
lastChange = "2017-09-08 15:50:39 +0000";
layers = (
{
layerId = UUID0;
paths = (
{
closed = 1;
nodes = (
"322 -239 OFFCURVE",
"417 -226 OFFCURVE",
"500 -203 CURVE",
"491 -157 LINE",
"426 -175 OFFCURVE",
"329 -183 OFFCURVE",
"261 -183 CURVE SMOOTH",
"191 -183 OFFCURVE",
"150 -167 OFFCURVE",
"150 -40 CURVE SMOOTH",
"150 281 LINE SMOOTH",
"150 342 OFFCURVE",
"146 479 OFFCURVE",
"121 546 CURVE",
"44 531 LINE",
"59 498 OFFCURVE",
"64 406 OFFCURVE",
"64 300 CURVE SMOOTH",
"64 5 LINE SMOOTH",
"64 -167 OFFCURVE",
"110 -239 OFFCURVE",
"246 -239 CURVE SMOOTH"
);
}
);
width = 247;
}
);
unicode = 1968;
},
{
glyphname = uni1969;
lastChange = "2017-09-08 15:50:39 +0000";
layers = (
{
layerId = UUID0;
paths = (
{
closed = 1;
nodes = (
"412 -239 OFFCURVE",
"453 23 OFFCURVE",
"453 180 CURVE SMOOTH",
"453 245 LINE SMOOTH",
"453 312 OFFCURVE",
"440 495 OFFCURVE",
"428 546 CURVE",
"351 536 LINE",
"361 453 OFFCURVE",
"367 300 OFFCURVE",
"367 220 CURVE SMOOTH",
"367 111 LINE SMOOTH",
"367 -49 OFFCURVE",
"356 -176 OFFCURVE",
"263 -176 CURVE SMOOTH",
"185 -176 OFFCURVE",
"133 -134 OFFCURVE",
"133 163 CURVE SMOOTH",
"133 337 OFFCURVE",
"145 500 OFFCURVE",
"147 546 CURVE",
"64 528 LINE",
"59 477 OFFCURVE",
"49 310 OFFCURVE",
"49 156 CURVE SMOOTH",
"49 -127 OFFCURVE",
"116 -239 OFFCURVE",
"250 -239 CURVE SMOOTH"
);
}
);
width = 502;
}
);
unicode = 1969;
},
{
glyphname = uni196A;
lastChange = "2017-09-08 15:50:39 +0000";
layers = (
{
layerId = UUID0;
paths = (
{
closed = 1;
nodes = (
"408 -264 OFFCURVE",
"506 -234 OFFCURVE",
"598 -189 CURVE",
"598 -129 LINE",
"510 -169 OFFCURVE",
"417 -200 OFFCURVE",
"322 -200 CURVE SMOOTH",
"149 -200 OFFCURVE",
"135 -20 OFFCURVE",
"135 311 CURVE SMOOTH",
"135 536 LINE SMOOTH",
"135 646 OFFCURVE",
"144 845 OFFCURVE",
"271 845 CURVE SMOOTH",
"382 845 OFFCURVE",
"417 734 OFFCURVE",
"417 431 CURVE",
"257 412 OFFCURVE",
"198 301 OFFCURVE",
"198 193 CURVE SMOOTH",
"198 84 OFFCURVE",
"270 -10 OFFCURVE",
"401 -10 CURVE SMOOTH",
"431 -10 OFFCURVE",
"465 -6 OFFCURVE",
"488 -1 CURVE",
"498 88 OFFCURVE",
"500 286 OFFCURVE",
"500 445 CURVE SMOOTH",
"500 760 OFFCURVE",
"433 908 OFFCURVE",
"271 908 CURVE SMOOTH",
"104 908 OFFCURVE",
"49 711 OFFCURVE",
"49 526 CURVE SMOOTH",
"49 312 LINE SMOOTH",
"49 -28 OFFCURVE",
"54 -264 OFFCURVE",
"322 -264 CURVE SMOOTH"
);
},
{
closed = 1;
nodes = (
"355 46 OFFCURVE",
"286 83 OFFCURVE",
"286 195 CURVE SMOOTH",
"286 277 OFFCURVE",
"315 355 OFFCURVE",
"416 374 CURVE",
"416 250 OFFCURVE",
"413 121 OFFCURVE",
"408 46 CURVE"
);
}
);
width = 549;
}
);
unicode = 196A;
},
{
glyphname = uni196B;
lastChange = "2017-09-08 15:50:39 +0000";
layers = (
{
layerId = UUID0;
paths = (
{
closed = 1;
nodes = (
"408 -264 OFFCURVE",
"505 -235 OFFCURVE",
"598 -189 CURVE",
"598 -129 LINE",
"510 -169 OFFCURVE",
"417 -200 OFFCURVE",
"322 -200 CURVE SMOOTH",
"149 -200 OFFCURVE",
"135 -20 OFFCURVE",
"135 311 CURVE SMOOTH",
"135 554 LINE SMOOTH",
"135 663 OFFCURVE",
"151 845 OFFCURVE",
"251 845 CURVE SMOOTH",
"325 845 OFFCURVE",
"381 768 OFFCURVE",
"381 471 CURVE SMOOTH",
"381 417 OFFCURVE",
"381 344 OFFCURVE",
"380 298 CURVE",
"465 313 LINE",
"465 350 OFFCURVE",
"465 416 OFFCURVE",
"465 459 CURVE SMOOTH",
"465 797 OFFCURVE",
"378 908 OFFCURVE",
"253 908 CURVE SMOOTH",
"86 908 OFFCURVE",
"49 673 OFFCURVE",
"49 536 CURVE SMOOTH",
"49 312 LINE SMOOTH",
"49 -28 OFFCURVE",
"54 -264 OFFCURVE",
"322 -264 CURVE SMOOTH"
);
}
);
width = 514;
}
);
unicode = 196B;
},
{
glyphname = uni196C;
lastChange = "2017-09-08 15:50:39 +0000";
layers = (
{
layerId = UUID0;
paths = (
{
closed = 1;
nodes = (
"135 0 LINE",
"135 554 LINE SMOOTH",
"135 663 OFFCURVE",
"153 845 OFFCURVE",
"339 845 CURVE SMOOTH",
"435 845 OFFCURVE",
"491 824 OFFCURVE",
"563 771 CURVE",
"600 817 LINE",
"514 874 OFFCURVE",
"447 908 OFFCURVE",
"335 908 CURVE SMOOTH",
"89 908 OFFCURVE",
"49 673 OFFCURVE",
"49 536 CURVE SMOOTH",
"49 0 LINE"
);
}
);
width = 209;
}
);
unicode = 196C;
},
{
glyphname = uni196D;
lastChange = "2017-09-08 15:50:39 +0000";
layers = (
{
layerId = UUID0;
paths = (
{
closed = 1;
nodes = (
"215 -127 OFFCURVE",
"264 -47 OFFCURVE",
"283 89 CURVE",
"332 60 OFFCURVE",
"392 39 OFFCURVE",
"434 39 CURVE SMOOTH",
"561 39 OFFCURVE",
"584 124 OFFCURVE",
"585 289 CURVE SMOOTH",
"585 304 LINE SMOOTH",
"585 415 OFFCURVE",
"578 508 OFFCURVE",
"570 546 CURVE",
"490 536 LINE",
"498 479 OFFCURVE",
"500 388 OFFCURVE",
"500 303 CURVE SMOOTH",
"500 295 LINE SMOOTH",
"500 148 OFFCURVE",
"484 103 OFFCURVE",
"411 103 CURVE SMOOTH",
"365 103 OFFCURVE",
"322 119 OFFCURVE",
"289 142 CURVE",
"292 181 OFFCURVE",
"293 225 OFFCURVE",
"293 271 CURVE SMOOTH",
"293 306 LINE SMOOTH",
"293 400 OFFCURVE",
"289 546 OFFCURVE",
"193 546 CURVE SMOOTH",
"151 546 OFFCURVE",
"112 514 OFFCURVE",
"83 478 CURVE",
"81 511 OFFCURVE",
"75 541 OFFCURVE",
"67 567 CURVE",
"-10 541 LINE",
"0 492 OFFCURVE",
"6 424 OFFCURVE",
"7 375 CURVE",
"75 378 LINE",
"100 448 OFFCURVE",
"126 482 OFFCURVE",
"159 482 CURVE SMOOTH",
"198 482 OFFCURVE",
"207 448 OFFCURVE",
"207 325 CURVE SMOOTH",
"207 279 LINE SMOOTH",
"207 -11 OFFCURVE",
"203 -71 OFFCURVE",
"105 -71 CURVE SMOOTH",
"74 -71 OFFCURVE",
"45 -63 OFFCURVE",
"20 -51 CURVE",
"20 -104 LINE",
"44 -115 OFFCURVE",
"79 -127 OFFCURVE",
"110 -127 CURVE SMOOTH"
);
}
);
width = 629;
}
);
unicode = 196D;
},
{
glyphname = uni1970;
lastChange = "2017-09-08 15:50:39 +0000";
layers = (
{
layerId = UUID0;
paths = (
{
closed = 1;
nodes = (
"172 10 LINE",
"180 60 OFFCURVE",
"185 192 OFFCURVE",
"185 251 CURVE SMOOTH",
"185 301 OFFCURVE",
"181 394 OFFCURVE",
"174 469 CURVE",
"213 477 OFFCURVE",
"250 482 OFFCURVE",
"275 482 CURVE SMOOTH",
"326 482 OFFCURVE",
"355 472 OFFCURVE",
"355 376 CURVE SMOOTH",
"355 313 LINE SMOOTH",
"355 68 OFFCURVE",
"390 -10 OFFCURVE",
"497 -10 CURVE SMOOTH",
"528 -10 OFFCURVE",
"563 6 OFFCURVE",
"583 19 CURVE",
"583 64 LINE",
"560 55 OFFCURVE",
"537 46 OFFCURVE",
"513 46 CURVE SMOOTH",
"452 46 OFFCURVE",
"441 73 OFFCURVE",
"441 255 CURVE SMOOTH",
"441 372 LINE SMOOTH",
"441 528 OFFCURVE",
"355 546 OFFCURVE",
"285 546 CURVE SMOOTH",
"216 546 OFFCURVE",
"62 493 OFFCURVE",
"10 474 CURVE",
"22 433 LINE",
"41 438 OFFCURVE",
"64 444 OFFCURVE",
"90 450 CURVE",
"97 377 OFFCURVE",
"99 322 OFFCURVE",
"99 268 CURVE SMOOTH",
"99 201 OFFCURVE",
"90 29 OFFCURVE",
"84 -10 CURVE"
);
}
);
width = 554;
}
);
unicode = 1970;
},
{
glyphname = uni1971;
lastChange = "2017-09-08 15:50:39 +0000";
layers = (
{
layerId = UUID0;
paths = (
{
closed = 1;
nodes = (
"333 -10 OFFCURVE",
"430 39 OFFCURVE",
"479 81 CURVE",
"461 115 LINE",
"419 83 OFFCURVE",
"333 54 OFFCURVE",
"270 54 CURVE SMOOTH",
"192 54 OFFCURVE",
"147 114 OFFCURVE",
"134 206 CURVE",
"157 206 LINE SMOOTH",
"354 206 OFFCURVE",
"469 319 OFFCURVE",
"469 416 CURVE SMOOTH",
"469 472 OFFCURVE",
"432 546 OFFCURVE",
"313 546 CURVE SMOOTH",
"168 546 OFFCURVE",
"44 388 OFFCURVE",
"44 258 CURVE SMOOTH",
"44 80 OFFCURVE",
"124 -10 OFFCURVE",
"250 -10 CURVE SMOOTH"
);
},
{
closed = 1;
nodes = (
"130 269 LINE SMOOTH",
"130 396 OFFCURVE",
"186 482 OFFCURVE",
"290 482 CURVE SMOOTH",
"337 482 OFFCURVE",
"383 460 OFFCURVE",
"383 400 CURVE SMOOTH",
"383 306 OFFCURVE",
"277 262 OFFCURVE",
"151 262 CURVE SMOOTH",
"144 262 OFFCURVE",
"137 262 OFFCURVE",
"130 262 CURVE"
);
}
);
width = 523;
}
);
unicode = 1971;
},
{
glyphname = uni1972;
lastChange = "2017-09-08 15:50:39 +0000";
layers = (
{
layerId = UUID0;
paths = (
{
closed = 1;
nodes = (
"299 -10 OFFCURVE",
"375 31 OFFCURVE",
"427 98 CURVE",
"445 19 OFFCURVE",
"480 -10 OFFCURVE",
"546 -10 CURVE SMOOTH",
"577 -10 OFFCURVE",
"612 8 OFFCURVE",
"632 21 CURVE",
"632 64 LINE",
"609 55 OFFCURVE",
"586 46 OFFCURVE",
"562 46 CURVE SMOOTH",
"504 46 OFFCURVE",
"498 73 OFFCURVE",
"498 255 CURVE SMOOTH",
"498 294 LINE SMOOTH",
"498 443 OFFCURVE",
"431 546 OFFCURVE",
"297 546 CURVE SMOOTH",
"175 546 OFFCURVE",
"44 399 OFFCURVE",
"44 232 CURVE SMOOTH",
"44 82 OFFCURVE",
"129 -10 OFFCURVE",
"233 -10 CURVE SMOOTH"
);
},
{
closed = 1;
nodes = (
"171 54 OFFCURVE",
"130 142 OFFCURVE",
"130 269 CURVE SMOOTH",
"130 396 OFFCURVE",
"177 482 OFFCURVE",
"282 482 CURVE SMOOTH",
"384 482 OFFCURVE",
"412 393 OFFCURVE",
"412 275 CURVE SMOOTH",
"412 160 OFFCURVE",
"388 54 OFFCURVE",
"265 54 CURVE SMOOTH"
);
}
);
width = 603;
}
);
unicode = 1972;
},
{
glyphname = uni1973;
lastChange = "2017-09-08 15:50:39 +0000";
layers = (
{
layerId = UUID0;
paths = (
{
closed = 1;
nodes = (
"369 -10 OFFCURVE",
"502 83 OFFCURVE",
"502 267 CURVE SMOOTH",
"502 281 LINE SMOOTH",
"502 392 OFFCURVE",
"491 489 OFFCURVE",
"479 541 CURVE",
"472 543 OFFCURVE",
"456 546 OFFCURVE",
"440 546 CURVE SMOOTH",
"295 546 OFFCURVE",
"226 449 OFFCURVE",
"226 364 CURVE SMOOTH",
"226 284 OFFCURVE",
"286 205 OFFCURVE",
"396 205 CURVE SMOOTH",
"414 205 LINE",
"406 125 OFFCURVE",
"372 54 OFFCURVE",
"262 54 CURVE SMOOTH",
"180 54 OFFCURVE",
"145 103 OFFCURVE",
"145 260 CURVE SMOOTH",
"145 279 LINE SMOOTH",
"145 390 OFFCURVE",
"139 492 OFFCURVE",
"126 546 CURVE",
"44 528 LINE",
"52 491 OFFCURVE",
"59 378 OFFCURVE",
"59 276 CURVE SMOOTH",
"59 253 LINE SMOOTH",
"59 79 OFFCURVE",
"113 -10 OFFCURVE",
"243 -10 CURVE SMOOTH"
);
},
{
closed = 1;
nodes = (
"361 261 OFFCURVE",
"312 285 OFFCURVE",
"312 367 CURVE SMOOTH",
"312 427 OFFCURVE",
"331 483 OFFCURVE",
"407 497 CURVE",
"412 435 OFFCURVE",
"416 344 OFFCURVE",
"416 261 CURVE",
"402 261 LINE SMOOTH"
);
}
);
width = 546;
}
);
unicode = 1973;
},
{
glyphname = uni1974;
lastChange = "2017-09-08 15:50:39 +0000";
layers = (
{
layerId = UUID0;
paths = (
{
closed = 1;
nodes = (
"351 -10 OFFCURVE",
"430 39 OFFCURVE",
"479 81 CURVE",
"461 115 LINE",
"419 83 OFFCURVE",
"354 54 OFFCURVE",
"290 54 CURVE SMOOTH",
"196 54 OFFCURVE",
"130 142 OFFCURVE",
"130 269 CURVE SMOOTH",
"130 396 OFFCURVE",
"169 482 OFFCURVE",
"274 482 CURVE SMOOTH",
"334 482 OFFCURVE",
"366 458 OFFCURVE",
"389 416 CURVE",
"461 446 LINE",
"430 509 OFFCURVE",
"375 546 OFFCURVE",
"282 546 CURVE SMOOTH",
"137 546 OFFCURVE",
"44 399 OFFCURVE",
"44 269 CURVE SMOOTH",
"44 91 OFFCURVE",
"127 -10 OFFCURVE",
"269 -10 CURVE SMOOTH"
);
}
);
width = 523;
}
);
unicode = 1974;
},
{
glyphname = uni3001;
lastChange = "2017-09-08 15:50:39 +0000";
layers = (
{
layerId = UUID0;
paths = (
{
closed = 1;
nodes = (
"251 -49 OFFCURVE",
"268 -34 OFFCURVE",
"268 -5 CURVE SMOOTH",
"268 67 OFFCURVE",
"157 175 OFFCURVE",
"82 198 CURVE",
"59 171 LINE",
"114 136 OFFCURVE",
"154 88 OFFCURVE",
"171 2 CURVE SMOOTH",
"179 -38 OFFCURVE",
"191 -49 OFFCURVE",
"217 -49 CURVE SMOOTH"
);
}
);
width = 415;
}
);
unicode = 3001;
},
{
glyphname = uni3002;
lastChange = "2017-09-08 15:50:39 +0000";
layers = (
{
layerId = UUID0;
paths = (
{
closed = 1;
nodes = (
"208 -15 OFFCURVE",
"247 25 OFFCURVE",
"247 77 CURVE SMOOTH",
"247 126 OFFCURVE",
"208 168 OFFCURVE",
"153 168 CURVE SMOOTH",
"98 168 OFFCURVE",
"59 126 OFFCURVE",
"59 77 CURVE SMOOTH",
"59 25 OFFCURVE",
"98 -15 OFFCURVE",
"153 -15 CURVE SMOOTH"
);
},
{
closed = 1;
nodes = (
"124 24 OFFCURVE",
"101 47 OFFCURVE",
"101 77 CURVE SMOOTH",
"101 106 OFFCURVE",
"124 129 OFFCURVE",
"153 129 CURVE SMOOTH",
"183 129 OFFCURVE",
"205 106 OFFCURVE",
"205 77 CURVE SMOOTH",
"205 47 OFFCURVE",
"183 24 OFFCURVE",
"153 24 CURVE SMOOTH"
);
}
);
width = 415;
}
);
unicode = 3002;
},
{
glyphname = uni3008;
lastChange = "2017-09-08 15:50:39 +0000";
layers = (
{
layerId = UUID0;
paths = (
{
closed = 1;
nodes = (
"332 10 LINE",
"107 376 LINE",
"332 742 LINE",
"286 760 LINE",
"49 376 LINE",
"286 -7 LINE"
);
}
);
width = 381;
}
);
unicode = 3008;
},
{
glyphname = uni3009;
lastChange = "2017-09-08 15:50:39 +0000";
layers = (
{
layerId = UUID0;
paths = (
{
closed = 1;
nodes = (
"332 376 LINE",
"95 760 LINE",
"49 742 LINE",
"274 376 LINE",
"49 10 LINE",
"95 -7 LINE"
);
}
);
width = 381;
}
);
unicode = 3009;
},
{
glyphname = uni300A;
lastChange = "2017-09-08 15:50:39 +0000";
layers = (
{
layerId = UUID0;
paths = (
{
closed = 1;
nodes = (
"527 10 LINE",
"302 376 LINE",
"527 742 LINE",
"481 760 LINE",
"244 376 LINE",
"481 -7 LINE"
);
},
{
closed = 1;
nodes = (
"332 10 LINE",
"107 376 LINE",
"332 742 LINE",
"286 760 LINE",
"49 376 LINE",
"286 -7 LINE"
);
}
);
width = 576;
}
);
unicode = 300A;
},
{
glyphname = uni300B;
lastChange = "2017-09-08 15:50:39 +0000";
layers = (
{
layerId = UUID0;
paths = (
{
closed = 1;
nodes = (
"527 377 LINE",
"290 760 LINE",
"244 743 LINE",
"469 377 LINE",
"244 11 LINE",
"290 -7 LINE"
);
},
{
closed = 1;
nodes = (
"332 377 LINE",
"95 760 LINE",
"49 743 LINE",
"274 377 LINE",
"49 11 LINE",
"95 -7 LINE"
);
}
);
width = 576;
}
);
unicode = 300B;
},
{
glyphname = uni1040;
lastChange = "2017-09-08 15:50:39 +0000";
layers = (
{
layerId = UUID0;
paths = (
{
closed = 1;
nodes = (
"500 -10 OFFCURVE",
"586 140 OFFCURVE",
"586 269 CURVE SMOOTH",
"586 415 OFFCURVE",
"494 546 OFFCURVE",
"329 546 CURVE SMOOTH",
"133 546 OFFCURVE",
"44 399 OFFCURVE",
"44 264 CURVE SMOOTH",
"44 109 OFFCURVE",
"143 -10 OFFCURVE",
"301 -10 CURVE SMOOTH"
);
},
{
closed = 1;
nodes = (
"215 46 OFFCURVE",
"130 129 OFFCURVE",
"130 288 CURVE SMOOTH",
"130 396 OFFCURVE",
"187 490 OFFCURVE",
"306 490 CURVE SMOOTH",
"428 490 OFFCURVE",
"500 392 OFFCURVE",
"500 248 CURVE SMOOTH",
"500 144 OFFCURVE",
"445 46 OFFCURVE",
"326 46 CURVE SMOOTH"
);
}
);
width = 630;
}
);
unicode = 1040;
},
{
glyphname = uni1041;
lastChange = "2017-09-08 15:50:39 +0000";
layers = (
{
layerId = UUID0;
paths = (
{
closed = 1;
nodes = (
"433 -10 OFFCURVE",
"520 138 OFFCURVE",
"520 267 CURVE SMOOTH",
"520 415 OFFCURVE",
"429 546 OFFCURVE",
"253 546 CURVE SMOOTH",
"175 546 OFFCURVE",
"96 502 OFFCURVE",
"53 458 CURVE",
"83 426 LINE",
"130 468 OFFCURVE",
"184 490 OFFCURVE",
"241 490 CURVE SMOOTH",
"362 490 OFFCURVE",
"434 392 OFFCURVE",
"434 246 CURVE SMOOTH",
"434 145 OFFCURVE",
"382 46 OFFCURVE",
"262 46 CURVE SMOOTH",
"208 46 OFFCURVE",
"143 74 OFFCURVE",
"102 151 CURVE",
"38 107 LINE",
"76 38 OFFCURVE",
"164 -10 OFFCURVE",
"237 -10 CURVE SMOOTH"
);
}
);
width = 563;
}
);
unicode = 1041;
},
{
glyphname = uni1042;
lastChange = "2017-09-08 15:50:39 +0000";
layers = (
{
layerId = UUID0;
paths = (
{
closed = 1;
nodes = (
"448 -293 OFFCURVE",
"550 -162 OFFCURVE",
"550 62 CURVE SMOOTH",
"550 209 OFFCURVE",
"547 413 OFFCURVE",
"540 546 CURVE",
"454 536 LINE",
"463 406 OFFCURVE",
"464 182 OFFCURVE",
"464 55 CURVE SMOOTH",
"464 -168 OFFCURVE",
"390 -237 OFFCURVE",
"272 -237 CURVE SMOOTH",
"167 -237 OFFCURVE",
"102 -145 OFFCURVE",
"83 -88 CURVE",
"4 -123 LINE",
"52 -213 OFFCURVE",
"145 -293 OFFCURVE",
"257 -293 CURVE SMOOTH"
);
}
);
width = 599;
}
);
unicode = 1042;
},
{
glyphname = uni1043;
lastChange = "2017-09-08 15:50:39 +0000";
layers = (
{
layerId = UUID0;
paths = (
{
closed = 1;
nodes = (
"433 -10 OFFCURVE",
"520 138 OFFCURVE",
"520 267 CURVE SMOOTH",
"520 415 OFFCURVE",
"429 546 OFFCURVE",
"253 546 CURVE SMOOTH",
"175 546 OFFCURVE",
"96 502 OFFCURVE",
"53 458 CURVE",
"83 426 LINE",
"130 468 OFFCURVE",
"184 490 OFFCURVE",
"241 490 CURVE SMOOTH",
"362 490 OFFCURVE",
"434 392 OFFCURVE",
"434 246 CURVE SMOOTH",
"434 145 OFFCURVE",
"382 46 OFFCURVE",
"262 46 CURVE SMOOTH",
"208 46 OFFCURVE",
"143 74 OFFCURVE",
"102 151 CURVE",
"38 107 LINE",
"91 38 OFFCURVE",
"164 -10 OFFCURVE",
"237 -10 CURVE SMOOTH"
);
},
{
closed = 1;
nodes = (
"409 -248 LINE",
"172 35 LINE",
"38 107 LINE",
"335 -291 LINE"
);
}
);
width = 563;
}
);
unicode = 1043;
},
{
glyphname = uni1044;
lastChange = "2017-09-08 15:50:39 +0000";
layers = (
{
layerId = UUID0;
paths = (
{
closed = 1;
nodes = (
"394 -10 OFFCURVE",
"470 35 OFFCURVE",
"525 107 CURVE",
"488 128 LINE",
"446 83 OFFCURVE",
"393 46 OFFCURVE",
"329 46 CURVE SMOOTH",
"224 46 OFFCURVE",
"130 135 OFFCURVE",
"130 287 CURVE SMOOTH",
"130 395 OFFCURVE",
"185 490 OFFCURVE",
"306 490 CURVE SMOOTH",
"360 490 OFFCURVE",
"422 463 OFFCURVE",
"463 390 CURVE",
"527 434 LINE",
"482 500 OFFCURVE",
"406 546 OFFCURVE",
"327 546 CURVE SMOOTH",
"133 546 OFFCURVE",
"44 400 OFFCURVE",
"44 266 CURVE SMOOTH",
"44 107 OFFCURVE",
"159 -10 OFFCURVE",
"315 -10 CURVE SMOOTH"
);
},
{
closed = 1;
nodes = (
"525 107 LINE",
"391 35 LINE",
"154 -248 LINE",
"228 -291 LINE"
);
}
);
width = 563;
}
);
unicode = 1044;
},
{
glyphname = uni1045;
lastChange = "2017-09-08 15:50:39 +0000";
layers = (
{
layerId = UUID0;
paths = (
{
closed = 1;
nodes = (
"463 -293 OFFCURVE",
"564 -173 OFFCURVE",
"564 55 CURVE SMOOTH",
"564 261 LINE SMOOTH",
"564 397 OFFCURVE",
"494 546 OFFCURVE",
"304 546 CURVE SMOOTH",
"159 546 OFFCURVE",
"30 446 OFFCURVE",
"30 282 CURVE SMOOTH",
"30 180 OFFCURVE",
"101 120 OFFCURVE",
"183 120 CURVE SMOOTH",
"268 120 OFFCURVE",
"333 182 OFFCURVE",
"333 263 CURVE SMOOTH",
"333 343 OFFCURVE",
"269 399 OFFCURVE",
"196 399 CURVE SMOOTH",
"172 399 OFFCURVE",
"137 387 OFFCURVE",
"117 367 CURVE",
"130 428 OFFCURVE",
"194 490 OFFCURVE",
"278 490 CURVE SMOOTH",
"412 490 OFFCURVE",
"479 390 OFFCURVE",
"479 262 CURVE SMOOTH",
"479 55 LINE",
"479 -168 OFFCURVE",
"404 -237 OFFCURVE",
"287 -237 CURVE SMOOTH",
"185 -237 OFFCURVE",
"123 -162 OFFCURVE",
"97 -88 CURVE",
"19 -123 LINE",
"67 -215 OFFCURVE",
"154 -293 OFFCURVE",
"275 -293 CURVE SMOOTH"
);
},
{
closed = 1;
nodes = (
"140 173 OFFCURVE",
"102 218 OFFCURVE",
"102 265 CURVE SMOOTH",
"102 313 OFFCURVE",
"132 346 OFFCURVE",
"172 346 CURVE SMOOTH",
"234 346 OFFCURVE",
"264 295 OFFCURVE",
"264 254 CURVE SMOOTH",
"264 213 OFFCURVE",
"243 173 OFFCURVE",
"190 173 CURVE SMOOTH"
);
}
);
width = 613;
}
);
unicode = 1045;
},
{
glyphname = uni1046;
lastChange = "2017-09-08 15:50:39 +0000";
layers = (
{
layerId = UUID0;
paths = (
{
closed = 1;
nodes = (
"542 -10 OFFCURVE",
"626 93 OFFCURVE",
"626 224 CURVE SMOOTH",
"626 269 OFFCURVE",
"603 349 OFFCURVE",
"520 349 CURVE SMOOTH",
"449 349 OFFCURVE",
"427 327 OFFCURVE",
"362 327 CURVE SMOOTH",
"323 327 OFFCURVE",
"296 357 OFFCURVE",
"296 404 CURVE SMOOTH",
"296 447 OFFCURVE",
"320 491 OFFCURVE",
"382 491 CURVE SMOOTH",
"417 491 OFFCURVE",
"469 485 OFFCURVE",
"500 477 CURVE",
"512 523 LINE",
"474 536 OFFCURVE",
"425 547 OFFCURVE",
"372 547 CURVE SMOOTH",
"269 547 OFFCURVE",
"215 468 OFFCURVE",
"215 403 CURVE SMOOTH",
"215 322 OFFCURVE",
"263 271 OFFCURVE",
"351 271 CURVE SMOOTH",
"411 271 OFFCURVE",
"450 291 OFFCURVE",
"496 291 CURVE SMOOTH",
"519 291 OFFCURVE",
"540 267 OFFCURVE",
"540 222 CURVE SMOOTH",
"540 118 OFFCURVE",
"487 46 OFFCURVE",
"355 46 CURVE SMOOTH",
"208 46 OFFCURVE",
"135 150 OFFCURVE",
"135 286 CURVE SMOOTH",
"135 549 LINE SMOOTH",
"135 668 OFFCURVE",
"160 845 OFFCURVE",
"340 845 CURVE SMOOTH",
"433 845 OFFCURVE",
"500 826 OFFCURVE",
"566 771 CURVE",
"607 812 LINE",
"519 885 OFFCURVE",
"447 908 OFFCURVE",
"340 908 CURVE SMOOTH",
"94 908 OFFCURVE",
"49 676 OFFCURVE",
"49 539 CURVE SMOOTH",
"49 282 LINE SMOOTH",
"49 126 OFFCURVE",
"134 -10 OFFCURVE",
"335 -10 CURVE SMOOTH"
);
}
);
width = 670;
}
);
unicode = 1046;
},
{
glyphname = uni1047;
lastChange = "2017-09-08 15:50:39 +0000";
layers = (
{
layerId = UUID0;
paths = (
{
closed = 1;
nodes = (
"419 -293 OFFCURVE",
"472 -259 OFFCURVE",
"506 -220 CURVE",
"478 -185 LINE",
"444 -221 OFFCURVE",
"393 -237 OFFCURVE",
"363 -237 CURVE SMOOTH",
"323 -237 OFFCURVE",
"291 -218 OFFCURVE",
"291 -168 CURVE SMOOTH",
"291 -119 OFFCURVE",
"325 -75 OFFCURVE",
"398 -9 CURVE SMOOTH",
"521 102 OFFCURVE",
"585 164 OFFCURVE",
"585 292 CURVE SMOOTH",
"585 468 OFFCURVE",
"462 546 OFFCURVE",
"326 546 CURVE SMOOTH",
"141 546 OFFCURVE",
"44 413 OFFCURVE",
"44 271 CURVE SMOOTH",
"44 161 OFFCURVE",
"118 78 OFFCURVE",
"200 44 CURVE",
"228 87 LINE",
"184 113 OFFCURVE",
"130 166 OFFCURVE",
"130 283 CURVE SMOOTH",
"130 398 OFFCURVE",
"186 490 OFFCURVE",
"307 490 CURVE SMOOTH",
"429 490 OFFCURVE",
"499 405 OFFCURVE",
"499 300 CURVE SMOOTH",
"499 193 OFFCURVE",
"432 122 OFFCURVE",
"348 46 CURVE SMOOTH",
"242 -50 OFFCURVE",
"205 -96 OFFCURVE",
"205 -163 CURVE SMOOTH",
"205 -239 OFFCURVE",
"258 -293 OFFCURVE",
"352 -293 CURVE SMOOTH"
);
}
);
width = 629;
}
);
unicode = 1047;
},
{
glyphname = uni1048;
lastChange = "2017-09-08 15:50:39 +0000";
layers = (
{
layerId = UUID0;
paths = (
{
closed = 1;
nodes = (
"289 50 OFFCURVE",
"346 147 OFFCURVE",
"346 247 CURVE SMOOTH",
"346 329 OFFCURVE",
"291 438 OFFCURVE",
"218 492 CURVE",
"170 463 LINE",
"221 417 OFFCURVE",
"260 352 OFFCURVE",
"260 233 CURVE SMOOTH",
"260 170 OFFCURVE",
"244 108 OFFCURVE",
"211 63 CURVE",
"170 89 OFFCURVE",
"130 169 OFFCURVE",
"130 283 CURVE SMOOTH",
"130 394 OFFCURVE",
"198 490 OFFCURVE",
"318 490 CURVE SMOOTH",
"440 490 OFFCURVE",
"529 395 OFFCURVE",
"529 252 CURVE SMOOTH",
"529 153 OFFCURVE",
"476 69 OFFCURVE",
"410 34 CURVE",
"434 -10 LINE",
"538 42 OFFCURVE",
"615 152 OFFCURVE",
"615 269 CURVE SMOOTH",
"615 396 OFFCURVE",
"520 546 OFFCURVE",
"332 546 CURVE SMOOTH",
"146 546 OFFCURVE",
"44 400 OFFCURVE",
"44 264 CURVE SMOOTH",
"44 155 OFFCURVE",
"107 28 OFFCURVE",
"215 -10 CURVE"
);
}
);
width = 659;
}
);
unicode = 1048;
},
{
glyphname = uni1049;
lastChange = "2017-09-08 15:50:39 +0000";
layers = (
{
layerId = UUID0;
paths = (
{
closed = 1;
nodes = (
"447 -293 OFFCURVE",
"519 -270 OFFCURVE",
"607 -197 CURVE",
"566 -156 LINE",
"500 -211 OFFCURVE",
"433 -229 OFFCURVE",
"340 -229 CURVE SMOOTH",
"162 -229 OFFCURVE",
"135 -72 OFFCURVE",
"135 47 CURVE SMOOTH",
"135 250 LINE SMOOTH",
"135 386 OFFCURVE",
"208 490 OFFCURVE",
"355 490 CURVE SMOOTH",
"487 490 OFFCURVE",
"540 419 OFFCURVE",
"540 315 CURVE SMOOTH",
"540 271 OFFCURVE",
"519 247 OFFCURVE",
"496 247 CURVE SMOOTH",
"450 247 OFFCURVE",
"413 266 OFFCURVE",
"353 266 CURVE SMOOTH",
"264 266 OFFCURVE",
"215 208 OFFCURVE",
"215 126 CURVE SMOOTH",
"215 60 OFFCURVE",
"269 -10 OFFCURVE",
"372 -10 CURVE SMOOTH",
"425 -10 OFFCURVE",
"474 1 OFFCURVE",
"512 14 CURVE",
"500 60 LINE",
"469 52 OFFCURVE",
"417 46 OFFCURVE",
"382 46 CURVE SMOOTH",
"320 46 OFFCURVE",
"296 83 OFFCURVE",
"296 125 CURVE SMOOTH",
"296 174 OFFCURVE",
"324 210 OFFCURVE",
"364 210 CURVE SMOOTH",
"428 210 OFFCURVE",
"449 188 OFFCURVE",
"520 188 CURVE SMOOTH",
"603 188 OFFCURVE",
"626 268 OFFCURVE",
"626 313 CURVE SMOOTH",
"626 444 OFFCURVE",
"542 546 OFFCURVE",
"335 546 CURVE SMOOTH",
"134 546 OFFCURVE",
"49 410 OFFCURVE",
"49 254 CURVE SMOOTH",
"49 57 LINE SMOOTH",
"49 -80 OFFCURVE",
"95 -293 OFFCURVE",
"340 -293 CURVE SMOOTH"
);
}
);
width = 670;
}
);
unicode = 1049;
},
{
glyphname = uni0300;
lastChange = "2017-09-08 15:50:39 +0000";
layers = (
{
layerId = UUID0;
paths = (
{
closed = 1;
nodes = (
"-261 606 LINE",
"-261 618 LINE",
"-292 653 OFFCURVE",
"-336 723 OFFCURVE",
"-357 766 CURVE",
"-462 766 LINE",
"-462 756 LINE",
"-438 719 OFFCURVE",
"-369 645 OFFCURVE",
"-320 606 CURVE"
);
}
);
width = 0;
}
);
note = uni0300;
unicode = 0300;
},
{
glyphname = uni0301;
lastChange = "2017-09-08 15:50:39 +0000";
layers = (
{
layerId = UUID0;
paths = (
{
closed = 1;
nodes = (
"-313 606 LINE",
"-272 638 OFFCURVE",
"-199 714 OFFCURVE",
"-170 756 CURVE",
"-170 766 LINE",
"-276 766 LINE",
"-302 715 OFFCURVE",
"-347 649 OFFCURVE",
"-372 618 CURVE",
"-372 606 LINE"
);
}
);
width = 0;
}
);
note = uni0301;
unicode = 0301;
},
{
glyphname = uni0307;
lastChange = "2017-09-08 15:50:39 +0000";
layers = (
{
layerId = UUID0;
paths = (
{
closed = 1;
nodes = (
"-289 625 OFFCURVE",
"-265 643 OFFCURVE",
"-265 681 CURVE SMOOTH",
"-265 720 OFFCURVE",
"-289 737 OFFCURVE",
"-316 737 CURVE SMOOTH",
"-346 737 OFFCURVE",
"-368 720 OFFCURVE",
"-368 681 CURVE SMOOTH",
"-368 643 OFFCURVE",
"-346 625 OFFCURVE",
"-316 625 CURVE SMOOTH"
);
}
);
width = 0;
}
);
note = uni0307;
unicode = 0307;
},
{
glyphname = uni0308;
lastChange = "2017-09-08 15:50:39 +0000";
layers = (
{
layerId = UUID0;
paths = (
{
closed = 1;
nodes = (
"-385 631 OFFCURVE",
"-363 646 OFFCURVE",
"-363 681 CURVE SMOOTH",
"-363 716 OFFCURVE",
"-385 730 OFFCURVE",
"-410 730 CURVE SMOOTH",
"-436 730 OFFCURVE",
"-457 716 OFFCURVE",
"-457 681 CURVE SMOOTH",
"-457 646 OFFCURVE",
"-436 631 OFFCURVE",
"-410 631 CURVE SMOOTH"
);
},
{
closed = 1;
nodes = (
"-198 631 OFFCURVE",
"-176 646 OFFCURVE",
"-176 681 CURVE SMOOTH",
"-176 716 OFFCURVE",
"-198 730 OFFCURVE",
"-223 730 CURVE SMOOTH",
"-248 730 OFFCURVE",
"-269 716 OFFCURVE",
"-269 681 CURVE SMOOTH",
"-269 646 OFFCURVE",
"-248 631 OFFCURVE",
"-223 631 CURVE SMOOTH"
);
}
);
width = 0;
}
);
note = uni0308;
unicode = 0308;
},
{
glyphname = uni030C;
lastChange = "2017-09-08 15:50:39 +0000";
layers = (
{
layerId = UUID0;
paths = (
{
closed = 1;
nodes = (
"-272 606 LINE",
"-256 637 OFFCURVE",
"-214 686 OFFCURVE",
"-147 753 CURVE",
"-147 766 LINE",
"-209 766 LINE",
"-241 746 OFFCURVE",
"-277 715 OFFCURVE",
"-318 674 CURVE",
"-353 711 OFFCURVE",
"-388 742 OFFCURVE",
"-425 766 CURVE",
"-485 766 LINE",
"-485 753 LINE",
"-423 688 OFFCURVE",
"-382 639 OFFCURVE",
"-362 606 CURVE"
);
}
);
width = 0;
}
);
note = uni030C;
unicode = 030C;
},
{
glyphname = uni0300.space;
lastChange = "2017-09-08 15:50:39 +0000";
layers = (
{
layerId = UUID0;
paths = (
{
closed = 1;
nodes = (
"276 606 LINE",
"276 618 LINE",
"245 653 OFFCURVE",
"201 723 OFFCURVE",
"180 766 CURVE",
"75 766 LINE",
"75 756 LINE",
"99 719 OFFCURVE",
"168 645 OFFCURVE",
"217 606 CURVE"
);
}
);
width = 441;
}
);
note = uni300.space;
category = Mark;
subCategory = Other;
},
{
glyphname = uni0301.space;
lastChange = "2017-09-08 15:50:39 +0000";
layers = (
{
layerId = UUID0;
paths = (
{
closed = 1;
nodes = (
"224 606 LINE",
"265 638 OFFCURVE",
"338 714 OFFCURVE",
"367 756 CURVE",
"367 766 LINE",
"261 766 LINE",
"235 715 OFFCURVE",
"190 649 OFFCURVE",
"166 618 CURVE",
"166 606 LINE"
);
}
);
width = 441;
}
);
note = uni0301.space;
category = Mark;
subCategory = Other;
},
{
glyphname = uni0307.space;
lastChange = "2017-09-08 15:50:39 +0000";
layers = (
{
layerId = UUID0;
paths = (
{
closed = 1;
nodes = (
"248 625 OFFCURVE",
"272 643 OFFCURVE",
"272 681 CURVE SMOOTH",
"272 720 OFFCURVE",
"248 737 OFFCURVE",
"221 737 CURVE SMOOTH",
"191 737 OFFCURVE",
"169 720 OFFCURVE",
"169 681 CURVE SMOOTH",
"169 643 OFFCURVE",
"191 625 OFFCURVE",
"221 625 CURVE SMOOTH"
);
}
);
width = 441;
}
);
note = uni0307.space;
subCategory = Other;
},
{
glyphname = uni0308.space;
lastChange = "2017-09-08 15:50:39 +0000";
layers = (
{
layerId = UUID0;
paths = (
{
closed = 1;
nodes = (
"152 631 OFFCURVE",
"174 646 OFFCURVE",
"174 681 CURVE SMOOTH",
"174 716 OFFCURVE",
"152 730 OFFCURVE",
"127 730 CURVE SMOOTH",
"101 730 OFFCURVE",
"80 716 OFFCURVE",
"80 681 CURVE SMOOTH",
"80 646 OFFCURVE",
"101 631 OFFCURVE",
"127 631 CURVE SMOOTH"
);
},
{
closed = 1;
nodes = (
"339 631 OFFCURVE",
"361 646 OFFCURVE",
"361 681 CURVE SMOOTH",
"361 716 OFFCURVE",
"339 730 OFFCURVE",
"314 730 CURVE SMOOTH",
"289 730 OFFCURVE",
"268 716 OFFCURVE",
"268 681 CURVE SMOOTH",
"268 646 OFFCURVE",
"289 631 OFFCURVE",
"314 631 CURVE SMOOTH"
);
}
);
width = 441;
}
);
note = uni0308.space;
subCategory = Other;
},
{
glyphname = uni030C.space;
lastChange = "2017-09-08 15:50:39 +0000";
layers = (
{
layerId = UUID0;
paths = (
{
closed = 1;
nodes = (
"265 606 LINE",
"281 637 OFFCURVE",
"323 686 OFFCURVE",
"390 753 CURVE",
"390 766 LINE",
"328 766 LINE",
"296 746 OFFCURVE",
"260 715 OFFCURVE",
"219 674 CURVE",
"185 711 OFFCURVE",
"149 742 OFFCURVE",
"112 766 CURVE",
"52 766 LINE",
"52 753 LINE",
"114 688 OFFCURVE",
"155 639 OFFCURVE",
"175 606 CURVE"
);
}
);
width = 441;
}
);
note = uni030C.space;
subCategory = Other;
},
{
glyphname = uni196C.wide;
lastChange = "2017-09-08 15:50:39 +0000";
layers = (
{
layerId = UUID0;
paths = (
{
closed = 1;
nodes = (
"135 0 LINE",
"135 554 LINE SMOOTH",
"135 753 OFFCURVE",
"205 845 OFFCURVE",
"339 845 CURVE SMOOTH",
"428 845 OFFCURVE",
"485 828 OFFCURVE",
"563 771 CURVE",
"600 817 LINE",
"506 880 OFFCURVE",
"442 908 OFFCURVE",
"334 908 CURVE SMOOTH",
"134 908 OFFCURVE",
"49 748 OFFCURVE",
"49 535 CURVE SMOOTH",
"49 0 LINE"
);
}
);
width = 684;
}
);
note = uni196C.wide;
},
{
glyphname = uni25CC;
lastChange = "2017-09-08 15:50:39 +0000";
layers = (
{
layerId = UUID0;
paths = (
{
closed = 1;
nodes = (
"199 522 OFFCURVE",
"187 510 OFFCURVE",
"187 496 CURVE SMOOTH",
"187 482 OFFCURVE",
"199 470 OFFCURVE",
"213 470 CURVE SMOOTH",
"227 470 OFFCURVE",
"239 482 OFFCURVE",
"239 496 CURVE SMOOTH",
"239 510 OFFCURVE",
"227 522 OFFCURVE",
"213 522 CURVE SMOOTH"
);
},
{
closed = 1;
nodes = (
"367 522 OFFCURVE",
"355 510 OFFCURVE",
"355 496 CURVE SMOOTH",
"355 482 OFFCURVE",
"367 470 OFFCURVE",
"381 470 CURVE SMOOTH",
"395 470 OFFCURVE",
"407 482 OFFCURVE",
"407 496 CURVE SMOOTH",
"407 510 OFFCURVE",
"395 522 OFFCURVE",
"381 522 CURVE SMOOTH"
);
},
{
closed = 1;
nodes = (
"199 112 OFFCURVE",
"187 100 OFFCURVE",
"187 86 CURVE SMOOTH",
"187 72 OFFCURVE",
"199 60 OFFCURVE",
"213 60 CURVE SMOOTH",
"227 60 OFFCURVE",
"239 72 OFFCURVE",
"239 86 CURVE SMOOTH",
"239 100 OFFCURVE",
"227 112 OFFCURVE",
"213 112 CURVE SMOOTH"
);
},
{
closed = 1;
nodes = (
"367 112 OFFCURVE",
"355 100 OFFCURVE",
"355 86 CURVE SMOOTH",
"355 72 OFFCURVE",
"367 60 OFFCURVE",
"381 60 CURVE SMOOTH",
"395 60 OFFCURVE",
"407 72 OFFCURVE",
"407 86 CURVE SMOOTH",
"407 100 OFFCURVE",
"395 112 OFFCURVE",
"381 112 CURVE SMOOTH"
);
},
{
closed = 1;
nodes = (
"283 540 OFFCURVE",
"271 528 OFFCURVE",
"271 514 CURVE SMOOTH",
"271 500 OFFCURVE",
"283 488 OFFCURVE",
"297 488 CURVE SMOOTH",
"311 488 OFFCURVE",
"323 500 OFFCURVE",
"323 514 CURVE SMOOTH",
"323 528 OFFCURVE",
"311 540 OFFCURVE",
"297 540 CURVE SMOOTH"
);
},
{
closed = 1;
nodes = (
"283 94 OFFCURVE",
"271 82 OFFCURVE",
"271 68 CURVE SMOOTH",
"271 54 OFFCURVE",
"283 42 OFFCURVE",
"297 42 CURVE SMOOTH",
"311 42 OFFCURVE",
"323 54 OFFCURVE",
"323 68 CURVE SMOOTH",
"323 82 OFFCURVE",
"311 94 OFFCURVE",
"297 94 CURVE SMOOTH"
);
},
{
closed = 1;
nodes = (
"48 277 OFFCURVE",
"60 265 OFFCURVE",
"74 265 CURVE SMOOTH",
"88 265 OFFCURVE",
"100 277 OFFCURVE",
"100 291 CURVE SMOOTH",
"100 305 OFFCURVE",
"88 317 OFFCURVE",
"74 317 CURVE SMOOTH",
"60 317 OFFCURVE",
"48 305 OFFCURVE",
"48 291 CURVE SMOOTH"
);
},
{
closed = 1;
nodes = (
"494 277 OFFCURVE",
"506 265 OFFCURVE",
"520 265 CURVE SMOOTH",
"534 265 OFFCURVE",
"546 277 OFFCURVE",
"546 291 CURVE SMOOTH",
"546 305 OFFCURVE",
"534 317 OFFCURVE",
"520 317 CURVE SMOOTH",
"506 317 OFFCURVE",
"494 305 OFFCURVE",
"494 291 CURVE SMOOTH"
);
},
{
closed = 1;
nodes = (
"113 119 OFFCURVE",
"125 107 OFFCURVE",
"139 107 CURVE SMOOTH",
"153 107 OFFCURVE",
"165 119 OFFCURVE",
"165 133 CURVE SMOOTH",
"165 147 OFFCURVE",
"153 159 OFFCURVE",
"139 159 CURVE SMOOTH",
"125 159 OFFCURVE",
"113 147 OFFCURVE",
"113 133 CURVE SMOOTH"
);
},
{
closed = 1;
nodes = (
"113 435 OFFCURVE",
"125 423 OFFCURVE",
"139 423 CURVE SMOOTH",
"153 423 OFFCURVE",
"165 435 OFFCURVE",
"165 449 CURVE SMOOTH",
"165 463 OFFCURVE",
"153 475 OFFCURVE",
"139 475 CURVE SMOOTH",
"125 475 OFFCURVE",
"113 463 OFFCURVE",
"113 449 CURVE SMOOTH"
);
},
{
closed = 1;
nodes = (
"429 119 OFFCURVE",
"441 107 OFFCURVE",
"455 107 CURVE SMOOTH",
"469 107 OFFCURVE",
"481 119 OFFCURVE",
"481 133 CURVE SMOOTH",
"481 147 OFFCURVE",
"469 159 OFFCURVE",
"455 159 CURVE SMOOTH",
"441 159 OFFCURVE",
"429 147 OFFCURVE",
"429 133 CURVE SMOOTH"
);
},
{
closed = 1;
nodes = (
"429 435 OFFCURVE",
"441 423 OFFCURVE",
"455 423 CURVE SMOOTH",
"469 423 OFFCURVE",
"481 435 OFFCURVE",
"481 449 CURVE SMOOTH",
"481 463 OFFCURVE",
"469 475 OFFCURVE",
"455 475 CURVE SMOOTH",
"441 475 OFFCURVE",
"429 463 OFFCURVE",
"429 449 CURVE SMOOTH"
);
},
{
closed = 1;
nodes = (
"66 193 OFFCURVE",
"78 181 OFFCURVE",
"92 181 CURVE SMOOTH",
"106 181 OFFCURVE",
"118 193 OFFCURVE",
"118 207 CURVE SMOOTH",
"118 221 OFFCURVE",
"106 233 OFFCURVE",
"92 233 CURVE SMOOTH",
"78 233 OFFCURVE",
"66 221 OFFCURVE",
"66 207 CURVE SMOOTH"
);
},
{
closed = 1;
nodes = (
"66 361 OFFCURVE",
"78 349 OFFCURVE",
"92 349 CURVE SMOOTH",
"106 349 OFFCURVE",
"118 361 OFFCURVE",
"118 375 CURVE SMOOTH",
"118 389 OFFCURVE",
"106 401 OFFCURVE",
"92 401 CURVE SMOOTH",
"78 401 OFFCURVE",
"66 389 OFFCURVE",
"66 375 CURVE SMOOTH"
);
},
{
closed = 1;
nodes = (
"476 193 OFFCURVE",
"488 181 OFFCURVE",
"502 181 CURVE SMOOTH",
"516 181 OFFCURVE",
"528 193 OFFCURVE",
"528 207 CURVE SMOOTH",
"528 221 OFFCURVE",
"516 233 OFFCURVE",
"502 233 CURVE SMOOTH",
"488 233 OFFCURVE",
"476 221 OFFCURVE",
"476 207 CURVE SMOOTH"
);
},
{
closed = 1;
nodes = (
"476 361 OFFCURVE",
"488 349 OFFCURVE",
"502 349 CURVE SMOOTH",
"516 349 OFFCURVE",
"528 361 OFFCURVE",
"528 375 CURVE SMOOTH",
"528 389 OFFCURVE",
"516 401 OFFCURVE",
"502 401 CURVE SMOOTH",
"488 401 OFFCURVE",
"476 389 OFFCURVE",
"476 375 CURVE SMOOTH"
);
}
